<?xml version="1.0" standalone="no"?>
<!DOCTYPE svg PUBLIC "-//W3C//DTD SVG 20010904//EN"
 "http://www.w3.org/TR/2001/REC-SVG-20010904/DTD/svg10.dtd">
<svg version="1.0" xmlns="http://www.w3.org/2000/svg"
 width="512.000000pt" height="512.000000pt" viewBox="0 0 512.000000 512.000000"
 preserveAspectRatio="xMidYMid meet">
<metadata>
Created by potrace 1.14, written by Peter Selinger 2001-2017
</metadata>
<g transform="translate(0.000000,512.000000) scale(0.100000,-0.100000)"
fill="#000000" stroke="none">
<path d="M1211 4770 c-88 -92 -215 -428 -246 -650 -3 -25 -8 -52 -10 -60 -2
-8 -7 -40 -10 -70 -4 -30 -8 -57 -10 -60 -7 -11 -18 -189 -18 -290 -1 -199 27
-373 87 -541 l34 -96 -53 -104 c-29 -57 -76 -165 -105 -239 -140 -357 -191
-483 -225 -551 -36 -71 -247 -387 -268 -401 -5 -3 -48 -19 -94 -34 -46 -15
-89 -34 -95 -41 -15 -19 6 -40 111 -110 l86 -57 -81 -13 c-44 -7 -93 -17 -108
-23 -23 -8 -25 -13 -16 -30 40 -74 606 -361 1020 -515 210 -79 336 -123 565
-200 215 -72 221 -75 248 -114 39 -57 117 -124 179 -154 50 -25 132 -57 143
-56 3 0 31 -5 63 -13 34 -7 119 -12 212 -12 139 1 163 4 235 27 100 33 165 73
231 143 28 30 55 54 61 54 20 0 286 91 428 147 153 60 530 250 1065 536 171
91 310 193 295 217 -5 8 -70 27 -119 35 -41 6 -41 10 1 41 68 51 113 97 113
114 0 19 -26 33 -140 74 l-76 26 -68 163 c-71 168 -123 292 -183 437 -65 157
-194 442 -255 564 -45 89 -45 83 0 236 17 58 33 117 36 132 2 15 7 31 9 35 3
5 12 53 22 108 9 55 18 111 21 125 23 134 23 389 -2 555 -2 17 -6 46 -8 65
-16 128 -73 333 -120 434 -56 119 -111 176 -169 176 -58 0 -250 -102 -335
-178 -71 -63 -123 -115 -172 -173 -30 -35 -57 -66 -60 -69 -16 -16 -84 -106
-132 -175 -59 -84 -85 -130 -179 -310 l-58 -110 -98 4 c-250 11 -626 2 -655
-15 -5 -3 -43 58 -92 151 -37 68 -153 251 -198 312 -70 94 -270 298 -393 402
-127 106 -277 191 -338 191 -31 0 -44 -7 -76 -40z"/>
</g>
</svg>
